<?xml version="1.0" encoding="UTF-8" standalone="no"?>
<svg width="20px" height="20px" viewBox="0 0 20 20" version="1.1" xmlns="http://www.w3.org/2000/svg" xmlns:xlink="http://www.w3.org/1999/xlink">
    <defs></defs>
    <g id="Page-1" stroke="none" stroke-width="1" fill="none" fill-rule="evenodd">
        <g id="Saint_Patrick's_flag_for_Northern_Ireland_crowned" transform="translate(-7.000000, 0.000000)">
            <path d="M30.4406247,0 L3.5604166,0 L17.0010415,8.12187492 L30.4406247,0 L30.4406247,0 Z" id="path3211" fill="#FFFFFF"></path>
            <path d="M33.6666663,18.1937498 L33.6666663,1.80624998 L20.1083331,9.9999999 L28.386458,15.0020832 L33.6666663,18.1937498 L33.6666663,18.1937498 Z" id="path3209" fill="#FFFFFF"></path>
            <path d="M3.5604166,19.9999998 L30.4604163,19.9999998 L26.7322914,17.7406248 L17.0104165,11.8718749 L3.5604166,19.9999998 L3.5604166,19.9999998 Z" id="path3207" fill="#FFFFFF"></path>
            <path d="M0.3333333,1.80312498 L0.3333333,18.1937498 L13.9010415,9.99479157 L0.3333333,1.80312498 L0.3333333,1.80312498 Z" id="path3205" fill="#FFFFFF"></path>
            <path d="M0.3333333,1.80312498 L13.9010415,9.99479157 L0.3333333,18.1937498 L0.3333333,19.9999998 L3.5604166,19.9999998 L17.0104165,11.8718749 L26.7322914,17.7406248 L30.4604163,19.9999998 L33.6666663,19.9999998 L33.6666663,18.1937498 L28.386458,15.0020832 L20.1083331,9.9999999 L33.6666663,1.80624998 L33.6666663,0 L30.4406247,0 L17.0010415,8.12187492 L3.5604166,0 L0.3333333,0 L0.3333333,1.80312498 L0.3333333,1.80312498 Z" id="background" stroke="#B90004" stroke-width="0.5" fill="#B90004"></path>
            <path d="M18.460342,5.4864754 C18.588134,5.2865445 18.511717,5.157432 18.318434,5.1175369 C18.318434,5.1175369 17.701757,5.3152139 17.035729,5.3369106 C16.369701,5.3586073 15.578412,5.1694089 15.578412,5.1694089 C15.436498,5.2584552 15.471127,5.4697733 15.541515,5.6016918 C15.541515,5.6016918 16.238732,5.8333266 17.032466,5.8105852 C17.536613,5.796141 18.01434,5.6675025 18.282338,5.5822332 C18.436278,5.5332537 18.460415,5.4887461 18.460342,5.4864754 L18.460342,5.4864754 Z" id="path5103" stroke="#000000" stroke-width="0.02163458" fill="#EBEAE3"></path>
            <path d="M17.0000005,15.3654581 L15.604981,12.4162437 L12.3533772,12.6827289 L14.2099616,9.99999949 L12.3533772,7.31727027 L15.604981,7.58375526 L17.0000005,4.63454061 L18.3950199,7.58375526 L21.6466238,7.31727005 L19.7900386,9.99999949 L21.6466238,12.6827286 L18.3950199,12.4162437 L17.0000005,15.3654581 L17.0000005,15.3654581 Z" id="star" stroke="#220000" stroke-width="0.5" fill="#FFFFFF"></path>
            <g id="g2597" transform="translate(15.111661, 6.938697)" stroke="#111111" stroke-width="0.5" fill="#B90004">
                <path d="M2.68070556,4.46351324 C2.79189068,4.35011836 2.97064334,4.22455438 3.06992107,3.95164564 C3.16291047,3.69623144 3.207913,3.22738358 3.29274137,2.98975947 C3.40354113,2.58242627 3.62681632,2.18527409 3.36112888,2.21246317 C3.10810311,2.23835653 3.02629867,2.4916983 2.93042925,2.67711162 C2.88601489,2.74616911 2.84307242,2.91028454 2.82373222,2.9943393 C2.81170219,3.04662399 2.81009509,3.10450163 2.76232553,3.1289799 C2.83163249,2.51019178 2.66542271,2.04858271 2.60887207,1.13137707 C2.58515196,0.746652641 2.52448411,0.360163688 2.3316375,0.357287818 C2.18645034,0.355193572 2.16207735,0.554361653 2.13946598,0.703185154 C2.13946598,0.49303812 2.1468988,0.049449088 1.90432398,0.049449088 C1.60956878,0.049449088 1.69923582,0.668601119 1.659692,0.982162132 C1.65288212,0.871287425 1.64908556,0.632313891 1.61813448,0.477934707 C1.60643089,0.419560928 1.58207625,0.374633438 1.55340833,0.348570002 C1.53525414,0.332065499 1.50981877,0.323125355 1.4721882,0.323125355 C1.206466,0.323125355 1.21249357,0.709189259 1.22104189,1.09447994 C1.22465399,1.13524424 1.22118676,1.31964414 1.22439805,1.44040818 C1.22439805,1.23026115 1.22616161,0.820159097 1.0153868,0.837908132 C0.839066033,0.852755897 0.825856752,1.3144176 0.817917855,1.55959661 C0.829424426,1.80477495 0.747467392,2.37639839 0.718835211,2.53894005 C0.711003519,2.65411461 0.66713194,2.80392593 0.6485866,2.96449021 C0.608674812,3.31004565 0.646639543,3.71463384 0.690783478,3.92171832 C0.778536293,4.24862797 1.00756959,4.39531696 0.996063024,4.61713185 C0.984556453,4.83897475 0.996063024,5.23009289 0.996063024,5.40522186 C0.996063024,5.58035179 1.14283893,5.58978865 1.44669198,5.52197096 C1.94348147,5.41104951 2.21495697,5.63289145 2.62517868,5.46943034 C2.57313158,4.98491331 2.69221117,4.63864317 2.68070556,4.46351324 L2.68070556,4.46351324 Z" id="path2599"></path>
                <g id="g2601" transform="translate(1.196086, 0.568407)">
                    <path id="path2603" d="M1.20727806,3.03531821 C1.31003436,2.74130391 1.4398177,2.62581278 1.56505193,2.5616856"></path>
                    <path id="path2605" d="M1.39388777,4.04918606 C1.40323226,3.98899331 1.44116811,3.94126635 1.49388777,3.88972664"></path>
                    <path id="path2607" d="M0.0281656604,0.797240999 C0.0600779918,1.05734617 0.12816566,1.55752741 0.12816566,1.67712873"></path>
                    <path id="path2609" d="M0.956658821,0.0863578093 C0.91964942,0.224645525 0.96142227,0.336548479 0.953624071,0.477759843 C0.948427581,0.571856856 0.986711855,0.744798806 1.01704203,0.954337734 C1.00930966,1.030214 1.07628895,1.40794611 1.01512626,1.54805786"></path>
                    <path id="path2611" d="M0.463323842,0.345583206 C0.488289283,0.396903614 0.480589532,0.458986653 0.492892546,0.528098941 C0.552188924,0.861175115 0.514097965,1.35751481 0.563323842,1.59923644"></path>
                </g>
            </g>
            <path d="M16.980882,4.4750845 C18.58883,4.7401301 18.531404,4.815227 18.531404,4.815227 L18.95106,3.5606748 C18.95106,3.5606748 18.995234,3.3132983 18.880381,3.1631052 C18.765527,3.0129125 18.443054,3.096844 18.443054,3.096844 C18.443054,3.096844 18.39888,2.8936417 18.257522,2.8450497 C18.116165,2.7964582 17.590489,3.0349996 17.427043,3.0880088 C17.263599,3.1410181 17.179667,3.1940273 16.949961,3.18961 C16.720255,3.1851928 16.309432,2.9819903 16.234336,2.9422335 C16.159239,2.9024767 16.048803,2.86272 15.947203,2.8671373 C15.845601,2.8715545 15.739583,2.8980589 15.686574,2.9687384 C15.633565,3.0394169 15.633565,3.1277656 15.633565,3.1277656 C15.633565,3.1277656 15.549634,3.0747569 15.41711,3.0747569 C15.284587,3.0747569 15.209491,3.0924261 15.147646,3.1631052 C15.085803,3.2337841 15.006287,3.4325692 15.006287,3.4325692 L15.156481,3.7727118 L15.165317,4.2409599 L15.478954,4.7357128 L16.980882,4.4750845 L16.980882,4.4750845 Z" id="path34974" stroke="#000000" stroke-width="0.05408645" fill="#B02320"></path>
            <path d="M18.479792,5.1838789 C18.479792,5.1838789 18.560755,5.2804113 18.557641,5.314664 C18.554526,5.3489179 18.520274,5.380057 18.520274,5.380057 C18.520274,5.380057 18.545186,5.4049684 18.538957,5.4423354 C18.53273,5.4797024 18.482906,5.4828168 18.482906,5.4828168 C18.482906,5.4828168 18.492248,5.5170701 18.461109,5.5326398 C18.42997,5.5482091 18.302298,5.5762349 18.302298,5.5762349 C18.302298,5.5762349 17.679512,5.3987404 17.013131,5.3987404 C16.34675,5.3987404 15.562039,5.6136019 15.562039,5.6136019 C15.562039,5.6136019 15.481077,5.5855766 15.477962,5.5326398 C15.474849,5.4797024 15.487305,5.4423354 15.487305,5.4423354 C15.487305,5.4423354 15.442977,5.4469533 15.431253,5.4080822 C15.414856,5.3537143 15.437483,5.3115503 15.437483,5.3115503 C15.437483,5.3115503 15.406609,5.3214913 15.440595,5.2492718 C15.465507,5.1963351 15.502874,5.1776515 15.502874,5.1776515 C15.502874,5.1776515 16.200394,4.9285367 16.994448,4.9254229 C17.788499,4.9223092 18.479792,5.1776515 18.479792,5.1838789 L18.479792,5.1838789 Z" id="path30012" stroke="#000000" stroke-width="0.02163458" fill="#EBEAE3"></path>
            <path id="path41763" stroke="#000000" stroke-width="0.04759607" d="M15.184323,3.6150948 C15.184323,3.6150948 15.157732,3.524686 15.216232,3.4449141 C15.274733,3.3651415 15.381095,3.3704597 15.413004,3.3864143 C15.444913,3.4023687 15.439595,3.4395959 15.482142,3.4502322 C15.524687,3.4608685 15.556594,3.4289596 15.556594,3.4289596"></path>
            <path d="M19.06676,3.8267662 L18.825249,4.3264437 L18.73031,4.3430997 C18.73031,4.3430997 18.672389,4.3083044 18.507121,4.3197816 C18.388864,4.3281094 18.353886,4.3580899 18.353886,4.3580899 L18.568749,3.8600782 C18.568749,3.8600782 18.585494,3.9670801 18.610387,4.0299687 C18.642035,4.109917 18.761957,4.1848689 18.761957,4.1848689 C18.761957,4.1848689 18.778574,4.0892362 18.746967,3.9733385 C18.711989,3.845088 18.630374,3.6718666 18.630374,3.6718666 L19.06676,3.8267662 L19.06676,3.8267662 Z" id="path17396" stroke="#000000" stroke-width="0.04975955" fill-opacity="0.94117647" fill="#FFCC00"></path>
            <rect id="rect5511" stroke="#121116" stroke-width="0.04852636" fill="#121116" x="16.854494" y="2.2738135" width="0.27030256" height="1.1487858"></rect>
            <path d="M15.198044,4.3924515 L15.371646,4.7638785 C15.371646,4.7638785 16.110441,4.475905 16.982508,4.4812715 C18.290576,4.4893456 18.662002,4.7517667 18.662002,4.7517667 L18.855791,4.2915204 L18.710451,4.3763027 L18.561071,4.4691592 L18.391508,4.5337556 L18.185608,4.5176063 L18.003931,4.3843774 L17.911075,4.1905892 L17.757659,4.3318927 L17.487164,4.392452 L17.220705,4.3238186 L16.986544,4.0290998 C16.986544,4.0290998 16.812113,4.3567015 16.590894,4.3763027 C16.271952,4.4045639 16.086238,4.2228875 16.086238,4.2228875 C16.086238,4.2228875 15.96767,4.4893461 15.771333,4.5377927 C15.460465,4.6145003 15.202081,4.3924515 15.198044,4.3924515 L15.198044,4.3924515 Z" id="path24185" stroke="#000000" stroke-width="0.0411057" fill="#F6CA1F"></path>
            <g id="g5431" transform="translate(14.475033, 1.864994)">
                <g id="g3168" transform="translate(3.410151, 0.102764)">
                    <path id="path2193" stroke="#1E1E1E" stroke-width="0.5" fill="#EEEEEE" d="M0.294836976,0.16030145 C0.294838707,0.23834475 0.232508605,0.301655548 0.155520207,0.301810452 C0.0785318092,0.301965572 0.0159542076,0.238905952 0.0156502417,0.1608633 C0.0153462758,0.0828206491 0.0774306088,0.0192623519 0.154417925,0.0188011025 C0.231405241,0.0183396369 0.294226448,0.0811495938 0.294832649,0.159190514"></path>
                    <path id="path2195" fill="#A3AFB8" d="M0.0902265999,0.232966826 C0.0902265999,0.232966826 0.203049008,0.231054328 0.214522477,0.185160453 C0.225995946,0.139266577 0.20687357,0.0799871676 0.20687357,0.0799871676 C0.20687357,0.0799871676 0.260416353,0.139266793 0.245118539,0.185160669 C0.229820508,0.231054545 0.21481303,0.242917003 0.176277509,0.252089202 C0.150167378,0.258303736 0.111261257,0.248264856 0.0902265999,0.232966826 L0.0902265999,0.232966826 Z"></path>
                </g>
                <g id="g3172" transform="translate(3.071014, 0.261296)">
                    <path id="path3174" stroke="#1E1E1E" stroke-width="0.5" fill="#EEEEEE" d="M0.294836976,0.16030145 C0.294838707,0.23834475 0.232508605,0.301655548 0.155520207,0.301810452 C0.0785318092,0.301965572 0.0159542076,0.238905952 0.0156502417,0.1608633 C0.0153462758,0.0828206491 0.0774306088,0.0192623519 0.154417925,0.0188011025 C0.231405241,0.0183396369 0.294226448,0.0811495938 0.294832649,0.159190514"></path>
                    <path id="path3176" fill="#A3AFB8" d="M0.0902265999,0.232966826 C0.0902265999,0.232966826 0.203049008,0.231054328 0.214522477,0.185160453 C0.225995946,0.139266577 0.20687357,0.0799871676 0.20687357,0.0799871676 C0.20687357,0.0799871676 0.260416353,0.139266793 0.245118539,0.185160669 C0.229820508,0.231054545 0.21481303,0.242917003 0.176277509,0.252089202 C0.150167378,0.258303736 0.111261257,0.248264856 0.0902265999,0.232966826 L0.0902265999,0.232966826 Z"></path>
                </g>
                <g id="g3178" transform="translate(3.803886, 0.009794)">
                    <path id="path3180" stroke="#1E1E1E" stroke-width="0.5" fill="#EEEEEE" d="M0.294836976,0.16030145 C0.294838707,0.23834475 0.232508605,0.301655548 0.155520207,0.301810452 C0.0785318092,0.301965572 0.0159542076,0.238905952 0.0156502417,0.1608633 C0.0153462758,0.0828206491 0.0774306088,0.0192623519 0.154417925,0.0188011025 C0.231405241,0.0183396369 0.294226448,0.0811495938 0.294832649,0.159190514"></path>
                    <path id="path3182" fill="#A3AFB8" d="M0.0902265999,0.232966826 C0.0902265999,0.232966826 0.203049008,0.231054328 0.214522477,0.185160453 C0.225995946,0.139266577 0.20687357,0.0799871676 0.20687357,0.0799871676 C0.20687357,0.0799871676 0.260416353,0.139266793 0.245118539,0.185160669 C0.229820508,0.231054545 0.21481303,0.242917003 0.176277509,0.252089202 C0.150167378,0.258303736 0.111261257,0.248264856 0.0902265999,0.232966826 L0.0902265999,0.232966826 Z"></path>
                </g>
                <g id="g3184" transform="translate(4.247395, 0.099036)">
                    <path id="path3186" stroke="#1E1E1E" stroke-width="0.5" fill="#EEEEEE" d="M0.294836976,0.16030145 C0.294838707,0.23834475 0.232508605,0.301655548 0.155520207,0.301810452 C0.0785318092,0.301965572 0.0159542076,0.238905952 0.0156502417,0.1608633 C0.0153462758,0.0828206491 0.0774306088,0.0192623519 0.154417925,0.0188011025 C0.231405241,0.0183396369 0.294226448,0.0811495938 0.294832649,0.159190514"></path>
                    <path id="path3188" fill="#A3AFB8" d="M0.0902265999,0.232966826 C0.0902265999,0.232966826 0.203049008,0.231054328 0.214522477,0.185160453 C0.225995946,0.139266577 0.20687357,0.0799871676 0.20687357,0.0799871676 C0.20687357,0.0799871676 0.260416353,0.139266793 0.245118539,0.185160669 C0.229820508,0.231054545 0.21481303,0.242917003 0.176277509,0.252089202 C0.150167378,0.258303736 0.111261257,0.248264856 0.0902265999,0.232966826 L0.0902265999,0.232966826 Z"></path>
                </g>
                <g id="g3190" transform="translate(4.585435, 0.377581)">
                    <path id="path3192" stroke="#1E1E1E" stroke-width="0.5" fill="#EEEEEE" d="M0.294836976,0.16030145 C0.294838707,0.23834475 0.232508605,0.301655548 0.155520207,0.301810452 C0.0785318092,0.301965572 0.0159542076,0.238905952 0.0156502417,0.1608633 C0.0153462758,0.0828206491 0.0774306088,0.0192623519 0.154417925,0.0188011025 C0.231405241,0.0183396369 0.294226448,0.0811495938 0.294832649,0.159190514"></path>
                    <path id="path3194" fill="#A3AFB8" d="M0.0902265999,0.232966826 C0.0902265999,0.232966826 0.203049008,0.231054328 0.214522477,0.185160453 C0.225995946,0.139266577 0.20687357,0.0799871676 0.20687357,0.0799871676 C0.20687357,0.0799871676 0.260416353,0.139266793 0.245118539,0.185160669 C0.229820508,0.231054545 0.21481303,0.242917003 0.176277509,0.252089202 C0.150167378,0.258303736 0.111261257,0.248264856 0.0902265999,0.232966826 L0.0902265999,0.232966826 Z"></path>
                </g>
                <g id="g3196" transform="translate(4.731469, 0.834612)">
                    <path id="path3199" stroke="#1E1E1E" stroke-width="0.5" fill="#EEEEEE" d="M0.294836976,0.16030145 C0.294838707,0.23834475 0.232508605,0.301655548 0.155520207,0.301810452 C0.0785318092,0.301965572 0.0159542076,0.238905952 0.0156502417,0.1608633 C0.0153462758,0.0828206491 0.0774306088,0.0192623519 0.154417925,0.0188011025 C0.231405241,0.0183396369 0.294226448,0.0811495938 0.294832649,0.159190514"></path>
                    <path id="path3201" fill="#A3AFB8" d="M0.0902265999,0.232966826 C0.0902265999,0.232966826 0.203049008,0.231054328 0.214522477,0.185160453 C0.225995946,0.139266577 0.20687357,0.0799871676 0.20687357,0.0799871676 C0.20687357,0.0799871676 0.260416353,0.139266793 0.245118539,0.185160669 C0.229820508,0.231054545 0.21481303,0.242917003 0.176277509,0.252089202 C0.150167378,0.258303736 0.111261257,0.248264856 0.0902265999,0.232966826 L0.0902265999,0.232966826 Z"></path>
                </g>
                <g id="g3203" transform="translate(4.677382, 1.297051)">
                    <path id="path4796" stroke="#1E1E1E" stroke-width="0.5" fill="#EEEEEE" d="M0.294836976,0.16030145 C0.294838707,0.23834475 0.232508605,0.301655548 0.155520207,0.301810452 C0.0785318092,0.301965572 0.0159542076,0.238905952 0.0156502417,0.1608633 C0.0153462758,0.0828206491 0.0774306088,0.0192623519 0.154417925,0.0188011025 C0.231405241,0.0183396369 0.294226448,0.0811495938 0.294832649,0.159190514"></path>
                    <path id="path4798" fill="#A3AFB8" d="M0.0902265999,0.232966826 C0.0902265999,0.232966826 0.203049008,0.231054328 0.214522477,0.185160453 C0.225995946,0.139266577 0.20687357,0.0799871676 0.20687357,0.0799871676 C0.20687357,0.0799871676 0.260416353,0.139266793 0.245118539,0.185160669 C0.229820508,0.231054545 0.21481303,0.242917003 0.176277509,0.252089202 C0.150167378,0.258303736 0.111261257,0.248264856 0.0902265999,0.232966826 L0.0902265999,0.232966826 Z"></path>
                </g>
                <g id="g3209" transform="translate(4.471854, 1.702700)">
                    <path id="path4801" stroke="#1E1E1E" stroke-width="0.5" fill="#EEEEEE" d="M0.294836976,0.16030145 C0.294838707,0.23834475 0.232508605,0.301655548 0.155520207,0.301810452 C0.0785318092,0.301965572 0.0159542076,0.238905952 0.0156502417,0.1608633 C0.0153462758,0.0828206491 0.0774306088,0.0192623519 0.154417925,0.0188011025 C0.231405241,0.0183396369 0.294226448,0.0811495938 0.294832649,0.159190514"></path>
                    <path id="path3213" fill="#A3AFB8" d="M0.0902265999,0.232966826 C0.0902265999,0.232966826 0.203049008,0.231054328 0.214522477,0.185160453 C0.225995946,0.139266577 0.20687357,0.0799871676 0.20687357,0.0799871676 C0.20687357,0.0799871676 0.260416353,0.139266793 0.245118539,0.185160669 C0.229820508,0.231054545 0.21481303,0.242917003 0.176277509,0.252089202 C0.150167378,0.258303736 0.111261257,0.248264856 0.0902265999,0.232966826 L0.0902265999,0.232966826 Z"></path>
                </g>
                <g id="g3215" transform="translate(2.741087, 0.382990)">
                    <path id="path3217" stroke="#1E1E1E" stroke-width="0.5" fill="#EEEEEE" d="M0.294836976,0.16030145 C0.294838707,0.23834475 0.232508605,0.301655548 0.155520207,0.301810452 C0.0785318092,0.301965572 0.0159542076,0.238905952 0.0156502417,0.1608633 C0.0153462758,0.0828206491 0.0774306088,0.0192623519 0.154417925,0.0188011025 C0.231405241,0.0183396369 0.294226448,0.0811495938 0.294832649,0.159190514"></path>
                    <path id="path3219" fill="#A3AFB8" d="M0.0902265999,0.232966826 C0.0902265999,0.232966826 0.203049008,0.231054328 0.214522477,0.185160453 C0.225995946,0.139266577 0.20687357,0.0799871676 0.20687357,0.0799871676 C0.20687357,0.0799871676 0.260416353,0.139266793 0.245118539,0.185160669 C0.229820508,0.231054545 0.21481303,0.242917003 0.176277509,0.252089202 C0.150167378,0.258303736 0.111261257,0.248264856 0.0902265999,0.232966826 L0.0902265999,0.232966826 Z"></path>
                </g>
                <g id="g3221" transform="translate(2.367619, 0.373043)">
                    <path id="path3223" stroke="#1E1E1E" stroke-width="0.5" fill="#EEEEEE" d="M0.24656037,0.134053691 C0.246561817,0.199318181 0.194437646,0.252262469 0.130055328,0.252392008 C0.0656730107,0.252521729 0.0133418657,0.199787491 0.0130876711,0.134523544 C0.0128334766,0.069259596 0.0647521209,0.0161083344 0.129133534,0.01572261 C0.193514947,0.0153367047 0.24604981,0.0678621593 0.246556751,0.133124659"></path>
                    <path id="path3225" fill="#A3AFB8" d="M0.0754528964,0.194820837 C0.0754528964,0.194820837 0.169801764,0.193221493 0.179396567,0.15484228 C0.18899137,0.116463068 0.173000092,0.0668900688 0.173000092,0.0668900688 C0.173000092,0.0668900688 0.217775779,0.116463248 0.204982829,0.154842461 C0.192189698,0.193221673 0.179639544,0.203141773 0.147413829,0.210812116 C0.125578972,0.216009082 0.0930433387,0.207613969 0.0754528964,0.194820837 L0.0754528964,0.194820837 Z"></path>
                </g>
                <g id="g3227" transform="translate(2.368971, 0.520115)">
                    <path id="path3229" stroke="#1E1E1E" stroke-width="0.5" fill="#EEEEEE" d="M0.24656037,0.134053691 C0.246561817,0.199318181 0.194437646,0.252262469 0.130055328,0.252392008 C0.0656730107,0.252521729 0.0133418657,0.199787491 0.0130876711,0.134523544 C0.0128334766,0.069259596 0.0647521209,0.0161083344 0.129133534,0.01572261 C0.193514947,0.0153367047 0.24604981,0.0678621593 0.246556751,0.133124659"></path>
                    <path id="path3231" fill="#A3AFB8" d="M0.0754528964,0.194820837 C0.0754528964,0.194820837 0.169801764,0.193221493 0.179396567,0.15484228 C0.18899137,0.116463068 0.173000092,0.0668900688 0.173000092,0.0668900688 C0.173000092,0.0668900688 0.217775779,0.116463248 0.204982829,0.154842461 C0.192189698,0.193221673 0.179639544,0.203141773 0.147413829,0.210812116 C0.125578972,0.216009082 0.0930433387,0.207613969 0.0754528964,0.194820837 L0.0754528964,0.194820837 Z"></path>
                </g>
                <g id="g3233" transform="translate(2.377084, 0.736461)">
                    <path id="path3235" stroke="#1E1E1E" stroke-width="0.5" fill="#EEEEEE" d="M0.24656037,0.134053691 C0.246561817,0.199318181 0.194437646,0.252262469 0.130055328,0.252392008 C0.0656730107,0.252521729 0.0133418657,0.199787491 0.0130876711,0.134523544 C0.0128334766,0.069259596 0.0647521209,0.0161083344 0.129133534,0.01572261 C0.193514947,0.0153367047 0.24604981,0.0678621593 0.246556751,0.133124659"></path>
                    <path id="path3237" fill="#A3AFB8" d="M0.0754528964,0.194820837 C0.0754528964,0.194820837 0.169801764,0.193221493 0.179396567,0.15484228 C0.18899137,0.116463068 0.173000092,0.0668900688 0.173000092,0.0668900688 C0.173000092,0.0668900688 0.217775779,0.116463248 0.204982829,0.154842461 C0.192189698,0.193221673 0.179639544,0.203141773 0.147413829,0.210812116 C0.125578972,0.216009082 0.0930433387,0.207613969 0.0754528964,0.194820837 L0.0754528964,0.194820837 Z"></path>
                </g>
                <g id="g3239" transform="translate(2.369083, 0.955410)">
                    <path id="path3241" stroke="#1E1E1E" stroke-width="0.5" fill="#EEEEEE" d="M0.266642601,0.144972303 C0.266644166,0.215552557 0.210274505,0.272809133 0.140648276,0.272949224 C0.0710220478,0.27308951 0.0144285546,0.216060092 0.0141536561,0.145480425 C0.0138787575,0.0749007589 0.070026152,0.0174203509 0.139651402,0.0170032095 C0.209276652,0.0165858724 0.266090456,0.0733895016 0.266638687,0.143967603"></path>
                    <path id="path3243" fill="#A3AFB8" d="M0.0815985008,0.210688907 C0.0815985008,0.210688907 0.183632041,0.208959296 0.194008336,0.167454114 C0.204384632,0.125948932 0.187090871,0.0723382347 0.187090871,0.0723382347 C0.187090871,0.0723382347 0.235513518,0.125949128 0.221678588,0.16745431 C0.207843462,0.208959492 0.194271104,0.219687579 0.159420619,0.227982668 C0.135807322,0.233602925 0.100621677,0.224524033 0.0815985008,0.210688907 L0.0815985008,0.210688907 Z"></path>
                </g>
                <g id="g3245" transform="translate(2.354369, 1.248373)">
                    <path id="path3247" stroke="#1E1E1E" stroke-width="0.5" fill="#EEEEEE" d="M0.294836976,0.16030145 C0.294838707,0.23834475 0.232508605,0.301655548 0.155520207,0.301810452 C0.0785318092,0.301965572 0.0159542076,0.238905952 0.0156502417,0.1608633 C0.0153462758,0.0828206491 0.0774306088,0.0192623519 0.154417925,0.0188011025 C0.231405241,0.0183396369 0.294226448,0.0811495938 0.294832649,0.159190514"></path>
                    <path id="path3249" fill="#A3AFB8" d="M0.0902265999,0.232966826 C0.0902265999,0.232966826 0.203049008,0.231054328 0.214522477,0.185160453 C0.225995946,0.139266577 0.20687357,0.0799871676 0.20687357,0.0799871676 C0.20687357,0.0799871676 0.260416353,0.139266793 0.245118539,0.185160669 C0.229820508,0.231054545 0.21481303,0.242917003 0.176277509,0.252089202 C0.150167378,0.258303736 0.111261257,0.248264856 0.0902265999,0.232966826 L0.0902265999,0.232966826 Z"></path>
                </g>
                <g id="g3251" transform="translate(2.358325, 1.890823)">
                    <path id="path3253" stroke="#1E1E1E" stroke-width="0.5" fill="#EEEEEE" d="M0.276897915,0.150548069 C0.276899541,0.223842902 0.218361851,0.283301618 0.146057736,0.283447096 C0.0737536198,0.283592778 0.0149834898,0.224369958 0.0146980184,0.151075734 C0.014412547,0.0777815095 0.0727194209,0.0180903533 0.145022521,0.0176571683 C0.217325621,0.01722378 0.276324534,0.0762121279 0.276893852,0.149504727"></path>
                    <path id="path3255" fill="#A3AFB8" d="M0.0847368526,0.218792192 C0.0847368526,0.218792192 0.190694694,0.216996059 0.201470072,0.17389455 C0.212245449,0.130793041 0.194286555,0.0751204284 0.194286555,0.0751204284 C0.194286555,0.0751204284 0.24457158,0.130793244 0.230204546,0.173894753 C0.215837309,0.216996262 0.201742946,0.228136961 0.16555208,0.236751086 C0.141030594,0.242587503 0.104491677,0.233159429 0.0847368526,0.218792192 L0.0847368526,0.218792192 Z"></path>
                </g>
                <g id="g3257" transform="translate(1.962670, 0.379235)">
                    <path id="path3259" stroke="#1E1E1E" stroke-width="0.5" fill="#EEEEEE" d="M0.294836976,0.16030145 C0.294838707,0.23834475 0.232508605,0.301655548 0.155520207,0.301810452 C0.0785318092,0.301965572 0.0159542076,0.238905952 0.0156502417,0.1608633 C0.0153462758,0.0828206491 0.0774306088,0.0192623519 0.154417925,0.0188011025 C0.231405241,0.0183396369 0.294226448,0.0811495938 0.294832649,0.159190514"></path>
                    <path id="path3261" fill="#A3AFB8" d="M0.0902265999,0.232966826 C0.0902265999,0.232966826 0.203049008,0.231054328 0.214522477,0.185160453 C0.225995946,0.139266577 0.20687357,0.0799871676 0.20687357,0.0799871676 C0.20687357,0.0799871676 0.260416353,0.139266793 0.245118539,0.185160669 C0.229820508,0.231054545 0.21481303,0.242917003 0.176277509,0.252089202 C0.150167378,0.258303736 0.111261257,0.248264856 0.0902265999,0.232966826 L0.0902265999,0.232966826 Z"></path>
                </g>
                <g id="g3263" transform="translate(1.616578, 0.242748)">
                    <path id="path3265" stroke="#1E1E1E" stroke-width="0.5" fill="#EEEEEE" d="M0.294836976,0.16030145 C0.294838707,0.23834475 0.232508605,0.301655548 0.155520207,0.301810452 C0.0785318092,0.301965572 0.0159542076,0.238905952 0.0156502417,0.1608633 C0.0153462758,0.0828206491 0.0774306088,0.0192623519 0.154417925,0.0188011025 C0.231405241,0.0183396369 0.294226448,0.0811495938 0.294832649,0.159190514"></path>
                    <path id="path3267" fill="#A3AFB8" d="M0.0902265999,0.232966826 C0.0902265999,0.232966826 0.203049008,0.231054328 0.214522477,0.185160453 C0.225995946,0.139266577 0.20687357,0.0799871676 0.20687357,0.0799871676 C0.20687357,0.0799871676 0.260416353,0.139266793 0.245118539,0.185160669 C0.229820508,0.231054545 0.21481303,0.242917003 0.176277509,0.252089202 C0.150167378,0.258303736 0.111261257,0.248264856 0.0902265999,0.232966826 L0.0902265999,0.232966826 Z"></path>
                </g>
                <g id="g3269" transform="translate(1.285109, 0.086763)">
                    <path id="path3271" stroke="#1E1E1E" stroke-width="0.5" fill="#EEEEEE" d="M0.294836976,0.16030145 C0.294838707,0.23834475 0.232508605,0.301655548 0.155520207,0.301810452 C0.0785318092,0.301965572 0.0159542076,0.238905952 0.0156502417,0.1608633 C0.0153462758,0.0828206491 0.0774306088,0.0192623519 0.154417925,0.0188011025 C0.231405241,0.0183396369 0.294226448,0.0811495938 0.294832649,0.159190514"></path>
                    <path id="path3273" fill="#A3AFB8" d="M0.0902265999,0.232966826 C0.0902265999,0.232966826 0.203049008,0.231054328 0.214522477,0.185160453 C0.225995946,0.139266577 0.20687357,0.0799871676 0.20687357,0.0799871676 C0.20687357,0.0799871676 0.260416353,0.139266793 0.245118539,0.185160669 C0.229820508,0.231054545 0.21481303,0.242917003 0.176277509,0.252089202 C0.150167378,0.258303736 0.111261257,0.248264856 0.0902265999,0.232966826 L0.0902265999,0.232966826 Z"></path>
                </g>
                <g id="g3275" transform="translate(0.904895, 0.003895)">
                    <path id="path3277" stroke="#1E1E1E" stroke-width="0.5" fill="#EEEEEE" d="M0.294836976,0.16030145 C0.294838707,0.23834475 0.232508605,0.301655548 0.155520207,0.301810452 C0.0785318092,0.301965572 0.0159542076,0.238905952 0.0156502417,0.1608633 C0.0153462758,0.0828206491 0.0774306088,0.0192623519 0.154417925,0.0188011025 C0.231405241,0.0183396369 0.294226448,0.0811495938 0.294832649,0.159190514"></path>
                    <path id="path3279" fill="#A3AFB8" d="M0.0902265999,0.232966826 C0.0902265999,0.232966826 0.203049008,0.231054328 0.214522477,0.185160453 C0.225995946,0.139266577 0.20687357,0.0799871676 0.20687357,0.0799871676 C0.20687357,0.0799871676 0.260416353,0.139266793 0.245118539,0.185160669 C0.229820508,0.231054545 0.21481303,0.242917003 0.176277509,0.252089202 C0.150167378,0.258303736 0.111261257,0.248264856 0.0902265999,0.232966826 L0.0902265999,0.232966826 Z"></path>
                </g>
                <g id="g3281" transform="translate(0.456437, 0.111135)">
                    <path id="path3283" stroke="#1E1E1E" stroke-width="0.5" fill="#EEEEEE" d="M0.294836976,0.16030145 C0.294838707,0.23834475 0.232508605,0.301655548 0.155520207,0.301810452 C0.0785318092,0.301965572 0.0159542076,0.238905952 0.0156502417,0.1608633 C0.0153462758,0.0828206491 0.0774306088,0.0192623519 0.154417925,0.0188011025 C0.231405241,0.0183396369 0.294226448,0.0811495938 0.294832649,0.159190514"></path>
                    <path id="path3285" fill="#A3AFB8" d="M0.0902265999,0.232966826 C0.0902265999,0.232966826 0.203049008,0.231054328 0.214522477,0.185160453 C0.225995946,0.139266577 0.20687357,0.0799871676 0.20687357,0.0799871676 C0.20687357,0.0799871676 0.260416353,0.139266793 0.245118539,0.185160669 C0.229820508,0.231054545 0.21481303,0.242917003 0.176277509,0.252089202 C0.150167378,0.258303736 0.111261257,0.248264856 0.0902265999,0.232966826 L0.0902265999,0.232966826 Z"></path>
                </g>
                <g id="g3287" transform="translate(0.139592, 0.427980)">
                    <path id="path3289" stroke="#1E1E1E" stroke-width="0.5" fill="#EEEEEE" d="M0.294836976,0.16030145 C0.294838707,0.23834475 0.232508605,0.301655548 0.155520207,0.301810452 C0.0785318092,0.301965572 0.0159542076,0.238905952 0.0156502417,0.1608633 C0.0153462758,0.0828206491 0.0774306088,0.0192623519 0.154417925,0.0188011025 C0.231405241,0.0183396369 0.294226448,0.0811495938 0.294832649,0.159190514"></path>
                    <path id="path3291" fill="#A3AFB8" d="M0.0902265999,0.232966826 C0.0902265999,0.232966826 0.203049008,0.231054328 0.214522477,0.185160453 C0.225995946,0.139266577 0.20687357,0.0799871676 0.20687357,0.0799871676 C0.20687357,0.0799871676 0.260416353,0.139266793 0.245118539,0.185160669 C0.229820508,0.231054545 0.21481303,0.242917003 0.176277509,0.252089202 C0.150167378,0.258303736 0.111261257,0.248264856 0.0902265999,0.232966826 L0.0902265999,0.232966826 Z"></path>
                </g>
                <g id="g3293" transform="translate(0.007979, 0.871563)">
                    <path id="path3295" stroke="#1E1E1E" stroke-width="0.5" fill="#EEEEEE" d="M0.294836976,0.16030145 C0.294838707,0.23834475 0.232508605,0.301655548 0.155520207,0.301810452 C0.0785318092,0.301965572 0.0159542076,0.238905952 0.0156502417,0.1608633 C0.0153462758,0.0828206491 0.0774306088,0.0192623519 0.154417925,0.0188011025 C0.231405241,0.0183396369 0.294226448,0.0811495938 0.294832649,0.159190514"></path>
                    <path id="path3297" fill="#A3AFB8" d="M0.0902265999,0.232966826 C0.0902265999,0.232966826 0.203049008,0.231054328 0.214522477,0.185160453 C0.225995946,0.139266577 0.20687357,0.0799871676 0.20687357,0.0799871676 C0.20687357,0.0799871676 0.260416353,0.139266793 0.245118539,0.185160669 C0.229820508,0.231054545 0.21481303,0.242917003 0.176277509,0.252089202 C0.150167378,0.258303736 0.111261257,0.248264856 0.0902265999,0.232966826 L0.0902265999,0.232966826 Z"></path>
                </g>
                <g id="g3299" transform="translate(0.066474, 1.334645)">
                    <path id="path3301" stroke="#1E1E1E" stroke-width="0.5" fill="#EEEEEE" d="M0.294836976,0.16030145 C0.294838707,0.23834475 0.232508605,0.301655548 0.155520207,0.301810452 C0.0785318092,0.301965572 0.0159542076,0.238905952 0.0156502417,0.1608633 C0.0153462758,0.0828206491 0.0774306088,0.0192623519 0.154417925,0.0188011025 C0.231405241,0.0183396369 0.294226448,0.0811495938 0.294832649,0.159190514"></path>
                    <path id="path3303" fill="#A3AFB8" d="M0.0902265999,0.232966826 C0.0902265999,0.232966826 0.203049008,0.231054328 0.214522477,0.185160453 C0.225995946,0.139266577 0.20687357,0.0799871676 0.20687357,0.0799871676 C0.20687357,0.0799871676 0.260416353,0.139266793 0.245118539,0.185160669 C0.229820508,0.231054545 0.21481303,0.242917003 0.176277509,0.252089202 C0.150167378,0.258303736 0.111261257,0.248264856 0.0902265999,0.232966826 L0.0902265999,0.232966826 Z"></path>
                </g>
                <g id="g3305" transform="translate(0.280954, 1.753855)">
                    <path id="path3307" stroke="#1E1E1E" stroke-width="0.5" fill="#EEEEEE" d="M0.294836976,0.16030145 C0.294838707,0.23834475 0.232508605,0.301655548 0.155520207,0.301810452 C0.0785318092,0.301965572 0.0159542076,0.238905952 0.0156502417,0.1608633 C0.0153462758,0.0828206491 0.0774306088,0.0192623519 0.154417925,0.0188011025 C0.231405241,0.0183396369 0.294226448,0.0811495938 0.294832649,0.159190514"></path>
                    <path id="path3309" fill="#A3AFB8" d="M0.0902265999,0.232966826 C0.0902265999,0.232966826 0.203049008,0.231054328 0.214522477,0.185160453 C0.225995946,0.139266577 0.20687357,0.0799871676 0.20687357,0.0799871676 C0.20687357,0.0799871676 0.260416353,0.139266793 0.245118539,0.185160669 C0.229820508,0.231054545 0.21481303,0.242917003 0.176277509,0.252089202 C0.150167378,0.258303736 0.111261257,0.248264856 0.0902265999,0.232966826 L0.0902265999,0.232966826 Z"></path>
                </g>
                <g id="g3313" transform="translate(0.728948, 2.457039) rotate(-14.999999) translate(-0.728948, -2.457039) translate(0.633965, 2.305597)">
                    <path id="path3315" stroke="#1E1E1E" stroke-width="0.5" fill="#EEEEEE" d="M0.184918796,0.160301464 C0.184919882,0.238344771 0.145827067,0.301655574 0.0975407151,0.301810477 C0.0492543636,0.301965597 0.0100063191,0.238905972 0.00981567475,0.160863314 C0.00962503038,0.0828206562 0.0485637018,0.0192623535 0.0968493749,0.0188011041 C0.145135048,0.0183396384 0.184535879,0.0811496007 0.184916083,0.159190528"></path>
                    <path id="path3317" fill="#A3AFB8" d="M0.0565892191,0.232966845 C0.0565892191,0.232966845 0.128158538,0.231054348 0.135436776,0.185160468 C0.142715014,0.139266589 0.130584663,0.0799871745 0.130584663,0.0799871745 C0.130584663,0.0799871745 0.164549729,0.139266805 0.154845503,0.185160685 C0.14514114,0.231054564 0.135621089,0.242917024 0.111175937,0.252089223 C0.0946128773,0.258303758 0.0699326329,0.248264877 0.0565892191,0.232966845 L0.0565892191,0.232966845 Z"></path>
                </g>
                <g id="g3319" transform="translate(4.338259, 2.439109) rotate(13.866224) translate(-4.338259, -2.439109) translate(4.243276, 2.287667)">
                    <path id="path3321" stroke="#1E1E1E" stroke-width="0.5" fill="#EEEEEE" d="M0.184918808,0.160301459 C0.184919893,0.238344764 0.145827076,0.301655565 0.0975407212,0.301810468 C0.0492543667,0.301965588 0.0100063197,0.238905965 0.00981567536,0.160863309 C0.00962503098,0.0828206537 0.0485637048,0.0192623529 0.0968493809,0.0188011036 C0.145135057,0.0183396379 0.184535891,0.0811495983 0.184916094,0.159190523"></path>
                    <path id="path3323" fill="#A3AFB8" d="M0.0565892227,0.232966838 C0.0565892227,0.232966838 0.128158542,0.231054341 0.13543678,0.185160463 C0.142715018,0.139266585 0.130584667,0.079987172 0.130584667,0.079987172 C0.130584667,0.079987172 0.164549732,0.139266801 0.154845506,0.185160679 C0.145141143,0.231054557 0.135621093,0.242917017 0.11117594,0.252089216 C0.0946128808,0.25830375 0.0699326364,0.24826487 0.0565892227,0.232966838 L0.0565892227,0.232966838 Z"></path>
                </g>
            </g>
            <path d="M16.864044,1.6371284 L16.874103,1.8735297 C16.874103,1.8735297 16.593835,1.8981435 16.582375,1.9238277 C16.527919,2.045876 16.647762,2.210527 16.647762,2.210527 C16.647762,2.210527 16.741995,2.1401099 16.97973,2.1401097 C17.206072,2.1401096 17.321757,2.1954376 17.321757,2.1954376 C17.321757,2.1954376 17.382114,2.099871 17.382114,2.0294538 C17.382114,1.9590365 17.356966,1.8886192 17.356966,1.8886192 C17.356966,1.8886192 17.24128,1.8735297 17.206072,1.8735297 L17.105475,1.8735297 L17.095415,1.6320985 L16.864044,1.6371284 L16.864044,1.6371284 Z" id="path5515" stroke="#000000" stroke-width="0.04852636" fill="#B3A192"></path>
            <path id="path5517" stroke="#121116" stroke-width="0.02472832" fill="#F0DDCB" d="M17.263777,2.00388 C17.26378,2.030391 17.241388,2.0519012 17.213724,2.051958 C17.186059,2.0520151 17.163572,2.0305973 17.163458,2.0040864 C17.163345,1.9775753 17.185649,1.9559815 17.213312,1.9558203 C17.240975,1.9556595 17.263552,1.9769923 17.263775,2.0035027"></path>
            <path id="path5519" stroke="#121116" stroke-width="0.02472832" fill="#F0DDCB" d="M17.379305,2.0296236 C17.379308,2.0572881 17.355941,2.0797341 17.327075,2.0797933 C17.298208,2.0798529 17.27474,2.0575033 17.274621,2.0298389 C17.274502,2.0021745 17.297778,1.9796411 17.326645,1.9794729 C17.355513,1.9793051 17.379071,2.0015661 17.379303,2.0292298"></path>
            <path id="path5521" stroke="#121116" stroke-width="0.02472832" fill="#F0DDCB" d="M17.14809,2.0020446 C17.148095,2.0285555 17.1257,2.0500656 17.098038,2.0501226 C17.070374,2.0501795 17.047885,2.0287616 17.04777,2.0022509 C17.047657,1.9757399 17.069962,1.954146 17.097624,1.9539848 C17.125289,1.9538238 17.147865,1.9751568 17.148087,2.0016671"></path>
            <path id="path5523" stroke="#121116" stroke-width="0.02472832" fill="#F0DDCB" d="M16.916243,2.0046445 C16.916248,2.0322335 16.892945,2.0546184 16.864156,2.0546774 C16.835367,2.0547368 16.811963,2.0324482 16.811845,2.0048592 C16.811726,1.9772702 16.834939,1.9547981 16.863726,1.9546306 C16.892514,1.9544629 16.91601,1.9766634 16.916241,2.0042517"></path>
            <path id="path5525" stroke="#121116" stroke-width="0.02472832" fill="#F0DDCB" d="M16.787552,2.0132308 C16.787556,2.0408199 16.764254,2.0632047 16.735464,2.0632638 C16.706675,2.0633232 16.683271,2.0410346 16.683153,2.0134456 C16.683035,1.9858566 16.706247,1.9633846 16.735035,1.9632169 C16.763823,1.9630494 16.787318,1.9852498 16.787549,2.0128381"></path>
            <path id="path5527" stroke="#121116" stroke-width="0.02472832" fill="#F0DDCB" d="M17.023769,1.8684999 C17.023775,1.8917768 17.004114,1.9106629 16.979824,1.9107127 C16.955535,1.9107627 16.935789,1.8919578 16.935689,1.8686811 C16.935591,1.8454042 16.955174,1.8264446 16.979462,1.8263032 C17.003752,1.8261619 17.023574,1.8448923 17.023768,1.8681686"></path>
            <path id="path5529" stroke="#121116" stroke-width="0.02472832" fill="#F0DDCB" d="M17.023769,1.6723371 C17.023775,1.6956141 17.004114,1.7145 16.979824,1.71455 C16.955535,1.7146001 16.935789,1.6957951 16.935689,1.6725184 C16.935591,1.6492415 16.955174,1.6302818 16.979462,1.6301404 C17.003751,1.6299991 17.023574,1.6487295 17.023768,1.6720057"></path>
            <path id="path5531" stroke="#121116" stroke-width="0.02472832" fill="#F0DDCB" d="M17.023769,1.7779631 C17.023775,1.8012401 17.004114,1.8201261 16.979824,1.820176 C16.955535,1.820226 16.935789,1.801421 16.935689,1.7781444 C16.935591,1.7548674 16.955174,1.7359079 16.979462,1.7357665 C17.003752,1.7356252 17.023574,1.7543556 17.023768,1.7776318"></path>
            <path id="path5533" stroke="#121116" stroke-width="0.02472832" fill="#F0DDCB" d="M16.657119,2.0482784 C16.657124,2.0749027 16.634636,2.0965046 16.606854,2.0965615 C16.579072,2.0966188 16.556487,2.0751096 16.556373,2.0484857 C16.556258,2.0218616 16.578659,2.0001755 16.60644,2.0000136 C16.63422,1.999852 16.656894,2.0212761 16.657118,2.0478995"></path>
            <path id="path5535" stroke="#4D3126" stroke-width="0.02472832" fill="#916C68" d="M17.035057,1.9917301 C17.03506,2.0208574 17.010356,2.0444873 16.979841,2.0445462 C16.949327,2.0446051 16.924524,2.0210709 16.924402,1.9919437 C16.92428,1.9628167 16.948887,1.9390945 16.979401,1.9389211 C17.009916,1.9387481 17.034815,1.962189 17.035056,1.9913156"></path>
            <g id="g5545" transform="translate(16.871715, 1.180578)">
                <path id="path5541" stroke="#1E1E1E" stroke-width="0.5" fill="#EEEEEE" d="M0.213842157,0.109677944 C0.213843438,0.167436906 0.167713636,0.214292511 0.110735394,0.214407153 C0.0537571525,0.214521956 0.00744417827,0.167852245 0.00721921654,0.110093762 C0.00699425482,0.05233528 0.0529421666,0.005296504 0.109919608,0.00495513859 C0.166897048,0.00461361307 0.213390312,0.051098551 0.213838955,0.108855752"></path>
                <path id="path5543" fill="#A3AFB8" d="M0.0624122657,0.163456757 C0.0624122657,0.163456757 0.14591084,0.162041443 0.154402344,0.12807581 C0.162893657,0.0941101782 0.148741469,0.0502383021 0.148741469,0.0502383021 C0.148741469,0.0502383021 0.188367785,0.0941103697 0.177046035,0.128076002 C0.165724285,0.162041443 0.15461736,0.170820719 0.126097587,0.177608944 C0.106773911,0.182208333 0.0779797674,0.174778698 0.0624122657,0.163456757 L0.0624122657,0.163456757 Z"></path>
            </g>
            <path d="M15.339395,4.803113 C15.339395,4.803113 15.431571,4.8891445 15.45615,4.9659583 C15.480732,5.0427721 15.517602,5.2486332 15.517602,5.2486332 C15.517602,5.2486332 16.482383,4.9813213 16.955555,5.0028288 C17.428728,5.0243368 18.519483,5.2639958 18.519483,5.2639958 C18.519483,5.2639958 18.537919,5.1472387 18.559427,5.0243368 C18.580934,4.9014347 18.670039,4.7662424 18.670039,4.7662424 C18.670039,4.7662424 17.628444,4.4405526 16.970919,4.4712777 C16.313393,4.5020033 15.98463,4.5726722 15.837147,4.6187604 C15.689666,4.6648486 15.330177,4.8061857 15.339395,4.803113 L15.339395,4.803113 Z" id="path34972" stroke="#000000" stroke-width="0.02163458" fill="#FFCC00"></path>
            <path d="M16.778539,0.90026131 L17.193496,0.90026131 C17.193496,0.90026131 17.091105,0.97110711 17.070266,1.0385808 C17.052332,1.0966498 17.057691,1.1919902 17.057691,1.1919902 C17.057691,1.1919902 17.170864,1.1919902 17.22116,1.1492368 C17.271458,1.1064833 17.377085,1.0310362 17.377085,1.0310362 L17.377085,1.5591665 C17.377085,1.5591665 17.275243,1.4606808 17.213616,1.4283914 C17.139591,1.3896062 17.065236,1.3755784 17.065236,1.3755784 C17.065236,1.3755784 17.065236,1.4610851 17.100444,1.5113834 C17.135653,1.5616815 17.276488,1.7528141 17.276488,1.7528141 L16.682971,1.7754485 C16.682971,1.7754485 16.823748,1.627009 16.881648,1.5189281 C16.919372,1.4485105 16.904282,1.3755784 16.904282,1.3755784 C16.904282,1.3755784 16.803686,1.3755784 16.753388,1.4107872 C16.70309,1.4459957 16.615069,1.5516219 16.615069,1.5516219 L16.61507,1.0436106 C16.61507,1.0436106 16.652792,1.1416922 16.735784,1.1794158 C16.818775,1.2171394 16.896738,1.1970201 16.896738,1.1970201 C16.896738,1.1970201 16.912841,1.0959364 16.879133,1.0335512 C16.844382,0.96923351 16.770992,0.89774621 16.778539,0.90026131 L16.778539,0.90026131 Z" id="path5537" stroke="#000000" stroke-width="0.04852636" fill="#FFCC00"></path>
            <path d="M16.746016,2.5761259 C16.746016,2.5761259 16.450819,2.5725693 16.198298,2.4231917 C15.945778,2.2738139 15.691087,2.117364 15.316259,2.2062382 C15.239496,2.224439 14.957041,2.3485028 14.832559,2.7503998 C14.745213,3.0324026 14.846786,3.3728074 14.935701,3.5257413 C15.024616,3.6786758 15.167995,3.8336918 15.167995,3.8336918 L15.320488,3.7304029 C15.320488,3.7304029 14.932144,3.40126 14.97838,2.9744666 C15.024616,2.547673 15.238013,2.4480878 15.238013,2.4480878 C15.238013,2.4480878 15.501202,2.2418043 15.853308,2.4374178 C16.205411,2.6330318 16.550402,2.7219471 16.550402,2.7219471 C16.550402,2.7219471 16.874055,2.8001926 16.902508,2.7966357 C16.930961,2.7930788 16.738904,2.5725691 16.746016,2.5761259 L16.746016,2.5761259 Z" id="path3325" stroke="#121116" stroke-width="0.04852636" fill="#FFCC00"></path>
            <path d="M15.113253,4.1769116 L14.956402,3.8686191 L15.426954,3.6847253 C15.426954,3.6847253 15.313373,3.836167 15.286329,3.94434 C15.2533,4.0764601 15.264695,4.1877293 15.264695,4.1877293 C15.264695,4.1877293 15.307963,4.1552772 15.362051,4.0687386 C15.403093,4.00307 15.470224,3.7658547 15.470224,3.7658547 L15.68116,4.4419354 C15.682789,4.4437456 15.572724,4.3335001 15.495338,4.3204111 C15.408103,4.3056563 15.302556,4.3337624 15.302556,4.3337624 L15.178156,4.3716231 L15.113253,4.1769116 L15.113253,4.1769116 Z" id="path16425" stroke="#000000" stroke-width="0.04975955" fill="#FFCC00"></path>
            <path d="M17.27805,2.5705629 C17.27805,2.5705629 17.573249,2.5670064 17.825768,2.4176287 C18.078287,2.268251 18.332978,2.1118011 18.707808,2.2006752 C18.78457,2.218876 19.067026,2.3429399 19.191506,2.7448369 C19.278853,3.0268401 19.17728,3.3672443 19.088366,3.5201783 C18.999451,3.6731128 18.938975,3.7630808 18.938975,3.7630808 L18.755697,3.6972583 C18.755697,3.6972583 19.091922,3.395697 19.045687,2.9689036 C18.999451,2.5421101 18.786052,2.4425249 18.786052,2.4425249 C18.786052,2.4425249 18.522865,2.2362414 18.170759,2.431855 C17.818654,2.6274689 17.473663,2.7163842 17.473663,2.7163842 C17.473663,2.7163842 17.150011,2.7946296 17.12156,2.7910732 C17.093106,2.7875164 17.285163,2.5670062 17.27805,2.5705629 L17.27805,2.5705629 Z" id="path4296" stroke="#121116" stroke-width="0.04852636" fill="#FFCC00"></path>
            <rect id="rect5267" stroke="#121116" stroke-width="0.04852636" fill="#FFCC00" x="17.125595" y="2.2784283" width="0.12323033" height="1.1493114"></rect>
            <rect id="rect5269" stroke="#121116" stroke-width="0.04852636" fill="#FFCC00" x="16.710636" y="2.2733984" width="0.14586449" height="1.1493114"></rect>
            <path d="M17.382114,2.0068195 C17.382125,2.2107109 17.202462,2.3761175 16.980538,2.3765272 C16.758615,2.3769369 16.57823,2.2121951 16.577348,2.0083054 C16.576467,1.8044154 16.755423,1.6383625 16.977341,1.6371522 C17.19926,1.6359423 17.380349,1.8000321 17.382103,2.0039173" id="path5513" stroke="#121116" stroke-width="0.04852636" fill="#FFCC00"></path>
            <path d="M16.622806,3.41813 L17.314769,3.4124345 C17.314769,3.4124345 17.233613,3.4608438 17.163847,3.5847135 C17.094081,3.7085837 17.104048,3.7868921 17.104048,3.7868921 C17.104048,3.7868921 17.209408,3.7854683 17.283445,3.7313644 C17.357482,3.6772605 17.440063,3.576171 17.440063,3.576171 L17.437215,4.2140303 C17.437215,4.2140303 17.387383,4.1328739 17.304803,4.0844651 C17.222223,4.0360556 17.105471,4.0360556 17.105471,4.0360556 L16.869121,4.0360556 C16.869121,4.0360556 16.761049,4.0424421 16.712505,4.0744982 C16.644031,4.1197165 16.558735,4.206911 16.558735,4.206911 L16.547345,3.6046467 C16.547345,3.6046467 16.581515,3.7100075 16.692572,3.7527213 C16.803628,3.7954351 16.866275,3.7897395 16.866275,3.7897395 C16.866275,3.7897395 16.866275,3.6544793 16.809322,3.5847135 C16.752371,3.5149477 16.622806,3.4209775 16.622806,3.41813 L16.622806,3.41813 Z" id="path19336" stroke="#000000" stroke-width="0.0411057" fill="#FFCC00"></path>
            <path d="M17.008353,3.9189718 C17.008353,3.9189718 17.109597,4.155207 17.227316,4.2594687 C17.295842,4.3201595 17.501876,4.3658736 17.595015,4.3420943 C17.804345,4.2886487 17.948209,4.1211716 17.948209,4.1211716 C17.948209,4.1211716 17.940719,4.3046498 18.071775,4.40575 C18.202831,4.5068496 18.307674,4.5330608 18.416264,4.5031052 C18.524853,4.4731497 18.831897,4.2447385 18.831897,4.2447385 L18.895553,4.3009054 C18.895553,4.3009054 18.719456,4.4719151 18.534375,4.5626936 C18.439082,4.6094332 18.149839,4.5834495 18.056227,4.5085604 C17.962616,4.4336714 17.90702,4.2522275 17.90702,4.2522275 C17.90702,4.2522275 17.849389,4.3688756 17.725823,4.4100646 C17.602257,4.4512529 17.432444,4.449467 17.274779,4.4033934 C17.168647,4.372378 17.030819,4.2260163 17.004609,4.1773383 C16.978398,4.1286605 16.985886,4.1024493 16.985886,4.1024493 C16.985886,4.1024493 16.908125,4.3253294 16.746243,4.3861347 C16.593367,4.4435556 16.419087,4.4440117 16.27102,4.401435 C16.121342,4.3583943 16.109686,4.2746943 16.109686,4.2746943 C16.109686,4.2746943 16.098453,4.5105941 15.772687,4.5779942 C15.446919,4.6453939 15.188553,4.40575 15.188553,4.40575 L15.233487,4.3383493 C15.233487,4.3383493 15.416964,4.5442942 15.697798,4.5255719 C15.978631,4.5068496 16.072243,4.1473834 16.072243,4.1473834 C16.072243,4.1473834 16.195808,4.3346054 16.525321,4.3383493 C16.854831,4.3420943 16.948441,3.9114834 16.948441,3.9114834 L17.008353,3.9189718 L17.008353,3.9189718 Z" id="path21276" stroke="#000000" stroke-width="0.03894224" fill="#F6CA1F"></path>
            <g id="g13496" transform="translate(15.535127, 3.206339)" stroke-width="0.5" stroke="#000000" fill="#FFCC00">
                <path id="path11548" d="M0.661339593,0.850063478 C0.661339593,0.850063478 0.663805936,0.735384174 0.688455948,0.700923743 C0.723412027,0.652055328 0.77096679,0.65005997 0.795226515,0.65685972 C0.825157529,0.665248963 0.856237989,0.692449909 0.851153861,0.772103904 C0.846069518,0.851758115 0.824037507,0.890737794 0.847764155,0.92124364 C0.871491019,0.951749485 0.87488051,0.972086643 0.920639386,0.965307662 C0.966398045,0.958528682 0.986735203,0.943275651 0.976566732,0.900906482 C0.966398045,0.858537312 0.952839868,0.904295972 0.944366034,0.868705783 C0.9358922,0.833115594 0.988627797,0.679372019 0.979956223,0.583984706 C0.971482389,0.490772317 0.9358922,0.416202449 0.864711823,0.397560144 C0.797814227,0.380039377 0.740993589,0.38061226 0.678287261,0.426371136 C0.618143767,0.470259702 0.541011066,0.614490551 0.541011066,0.614490551 L0.539316213,0.922938493 L0.664729084,0.916159296 L0.661339593,0.850063478 L0.661339593,0.850063478 Z"></path>
                <path d="M0.427718105,0.933092469 C0.427718105,0.933092469 0.379748175,0.828898798 0.343405968,0.807118613 C0.291868711,0.776231999 0.247459184,0.793355989 0.22791991,0.809261518 C0.203812709,0.828885168 0.186149369,0.866219969 0.222559942,0.937247174 C0.25897073,1.0082746 0.294713443,1.03524297 0.285111365,1.07267794 C0.275509504,1.11011291 0.28050666,1.1301156 0.235837518,1.14213664 C0.191168593,1.15415746 0.166437235,1.14827415 0.158875947,1.10536304 C0.151314877,1.06245149 0.181987741,1.09901458 0.175574168,1.06299625 C0.169160812,1.02697769 0.0595169569,0.906992506 0.0294513755,0.816053047 C7.13941272e-05,0.727187046 0.00299119758,0.644611084 0.0608429406,0.599142977 C0.115214112,0.556410563 0.167554661,0.534288985 0.243303181,0.551263046 C0.315955792,0.567543504 0.444183322,0.669080231 0.444183322,0.669080231 L0.56867629,0.95129386 L0.450953432,0.995062355 L0.427718105,0.933092469 L0.427718105,0.933092469 Z" id="path12519"></path>
                <path id="path11546" d="M0.403734655,0.0196264619 C0.403734655,0.0196264619 0.281711274,0.224693544 0.308827629,0.382307114 C0.335943984,0.539920683 0.49864168,0.87887447 0.49864168,0.87887447 L0.500336534,0.92463313 L0.588125565,0.915142471 L0.568127421,0.868705783 C0.568127421,0.868705783 0.611974881,0.462944833 0.585074872,0.334853601 C0.565079757,0.23964196 0.405429508,0.0213213152 0.403734655,0.0196264619 L0.403734655,0.0196264619 Z"></path>
                <path id="path12521" d="M0.598633266,0.958528682 C0.598633266,0.958528682 0.659604933,1.03148547 0.732519971,1.06699388 C0.812173966,1.10578426 0.844918125,1.10603717 0.876575363,1.0822467 C0.899770017,1.06481593 0.891828394,0.990729164 0.864712039,0.970391789 C0.837595684,0.950054631 0.806832387,0.960389472 0.802005279,0.980560477 C0.793855531,1.01461742 0.782744874,1.01234904 0.757941473,0.999202998 C0.721723232,0.980006848 0.637612945,0.928022836 0.637612945,0.928022836 L0.598633266,0.958528682 L0.598633266,0.958528682 Z"></path>
                <path id="path13492" d="M0.504179052,0.975090821 C0.504179052,0.975090821 0.478515027,1.06664189 0.426592458,1.12894365 C0.369871338,1.19700367 0.340114699,1.21067089 0.30148312,1.20196621 C0.27317881,1.19558834 0.250019637,1.12476753 0.26640221,1.0950944 C0.282785215,1.06542105 0.315079807,1.06222194 0.327758972,1.07863567 C0.349166393,1.10634892 0.358367581,1.09972117 0.375592171,1.07755481 C0.400743241,1.04518731 0.456114362,0.963266872 0.456114362,0.963266872 L0.504179052,0.975090821 L0.504179052,0.975090821 Z"></path>
                <path id="path13494" transform="translate(0.547790, 0.933957) rotate(-9.524881) translate(-0.547790, -0.933957) " d="M0.739299008,0.933959025 C0.739294465,0.96153494 0.653778357,0.983903848 0.548157878,0.983956891 C0.4425374,0.984009714 0.356692879,0.961726862 0.356282688,0.934151168 C0.355872496,0.906575474 0.441051536,0.884118968 0.546670284,0.883957858 C0.652289032,0.883796529 0.73846824,0.905991342 0.739293166,0.933566376"></path>
            </g>
            <g id="g13504" transform="translate(17.995721, 3.816142) rotate(20.528987) translate(-17.995721, -3.816142) translate(17.498125, 3.210373)" stroke-width="0.5" stroke="#000000" fill="#FFCC00">
                <path id="path13506" d="M0.661339483,0.850063337 C0.661339483,0.850063337 0.663805825,0.735384051 0.688455834,0.700923626 C0.723411907,0.652055219 0.770966662,0.650059862 0.795226382,0.656859611 C0.825157391,0.665248852 0.856237846,0.692449794 0.85115372,0.772103775 C0.846069377,0.851757973 0.824037369,0.890737646 0.847764013,0.921243486 C0.871490874,0.951749326 0.874880364,0.972086481 0.920639232,0.965307501 C0.966397884,0.958528522 0.986735039,0.943275494 0.97656657,0.900906331 C0.966397884,0.858537169 0.952839709,0.904295821 0.944365876,0.868705638 C0.935892044,0.833115455 0.988627632,0.679371906 0.979956059,0.583984608 C0.971482227,0.490772235 0.935892044,0.41620238 0.864711678,0.397560078 C0.797814094,0.380039313 0.740993465,0.380612197 0.678287148,0.426371065 C0.618143664,0.470259624 0.541010976,0.614490448 0.541010976,0.614490448 L0.539316123,0.922938339 L0.664728973,0.916159143 L0.661339483,0.850063337 L0.661339483,0.850063337 Z"></path>
                <path d="M0.427718034,0.933092313 C0.427718034,0.933092313 0.379748112,0.828898659 0.343405911,0.807118478 C0.291868663,0.77623187 0.247459143,0.793355856 0.227919872,0.809261383 C0.203812675,0.82888503 0.186149338,0.866219825 0.222559904,0.937247018 C0.258970687,1.00827443 0.294713394,1.0352428 0.285111318,1.07267776 C0.275509458,1.11011272 0.280506614,1.13011541 0.235837479,1.14213645 C0.191168561,1.15415727 0.166437207,1.14827396 0.158875921,1.10536285 C0.151314851,1.06245131 0.18198771,1.0990144 0.175574139,1.06299607 C0.169160784,1.02697752 0.059516947,0.906992355 0.0294513706,0.816052911 C7.13941153e-05,0.727186925 0.00299119709,0.644610977 0.0608429304,0.599142877 C0.115214093,0.55641047 0.167554633,0.534288895 0.24330314,0.551262955 C0.315955739,0.567543409 0.444183248,0.66908012 0.444183248,0.66908012 L0.568676196,0.951293702 L0.450953357,0.995062189 L0.427718034,0.933092313 L0.427718034,0.933092313 Z" id="path13508"></path>
                <path id="path13510" d="M0.403734587,0.0196264586 C0.403734587,0.0196264586 0.281711227,0.224693507 0.308827577,0.38230705 C0.335943928,0.539920593 0.498641597,0.878874324 0.498641597,0.878874324 L0.50033645,0.924632976 L0.588125467,0.915142318 L0.568127326,0.868705638 C0.568127326,0.868705638 0.611974779,0.462944756 0.585074775,0.334853545 C0.565079663,0.23964192 0.40542944,0.0213213117 0.403734587,0.0196264586 L0.403734587,0.0196264586 Z"></path>
                <path id="path13512" d="M0.598633166,0.958528522 C0.598633166,0.958528522 0.659604823,1.0314853 0.732519849,1.06699371 C0.812173831,1.10578408 0.844917984,1.10603699 0.876575217,1.08224652 C0.899769867,1.06481575 0.891828245,0.990728999 0.864711895,0.970391628 C0.837595544,0.950054473 0.806832253,0.960389312 0.802005145,0.980560313 C0.793855399,1.01461725 0.782744744,1.01234887 0.757941346,0.999202831 C0.721723112,0.980006684 0.637612839,0.928022682 0.637612839,0.928022682 L0.598633166,0.958528522 L0.598633166,0.958528522 Z"></path>
                <path id="path13514" d="M0.504178968,0.975090659 C0.504178968,0.975090659 0.478514947,1.06664171 0.426592387,1.12894346 C0.369871277,1.19700347 0.340114642,1.21067069 0.30148307,1.20196601 C0.273178765,1.19558814 0.250019596,1.12476734 0.266402165,1.09509421 C0.282785168,1.06542087 0.315079755,1.06222177 0.327758917,1.07863549 C0.349166334,1.10634874 0.358367521,1.09972099 0.375592109,1.07755463 C0.400743174,1.04518713 0.456114286,0.963266711 0.456114286,0.963266711 L0.504178968,0.975090659 L0.504178968,0.975090659 Z"></path>
                <path id="path13516" transform="translate(0.547790, 0.933957) rotate(-9.524881) translate(-0.547790, -0.933957) " d="M0.739298885,0.933958878 C0.739294341,0.961534792 0.653778248,0.983903701 0.548157787,0.983956743 C0.442537326,0.984009566 0.35669282,0.961726715 0.356282628,0.934151021 C0.355872437,0.906575327 0.441051463,0.884118821 0.546670193,0.883957711 C0.652288923,0.883796382 0.738468117,0.905991195 0.739293043,0.933566229"></path>
            </g>
            <path id="path27095" stroke="#000000" stroke-width="0.02163458" fill="#CCA715" d="M15.303013,4.7921397 C15.303013,4.7921397 15.3232,4.8769219 15.371646,4.8325121 C15.420094,4.7881021 16.086238,4.5256809 17.026918,4.5256809 C17.967597,4.5256809 18.585295,4.784065 18.62163,4.8002138 C18.657966,4.8163632 18.674115,4.8365491 18.706413,4.8002138 C18.738711,4.7638785 18.674115,4.7073574 18.674115,4.7073574 C18.674115,4.7073574 18.02008,4.4287874 16.998657,4.4328244 C15.977232,4.4368615 15.315124,4.7275438 15.315124,4.7275438 C15.315124,4.7275438 15.270715,4.7598414 15.303013,4.7921397 L15.303013,4.7921397 Z"></path>
            <path id="path27097" fill="#000000" d="M16.495845,5.1834195 C16.495845,5.1834195 16.525852,5.0999896 16.578264,5.0839329 C16.620052,5.0711303 16.686041,5.1122182 16.686041,5.1122182 C16.686041,5.1122182 16.606548,5.1049028 16.581677,5.1190455 C16.559209,5.1318217 16.552416,5.1697644 16.552416,5.1697644 C16.552416,5.1697644 16.569484,5.139528 16.630444,5.1424541 C16.691404,5.1453802 16.698232,5.1453802 16.698232,5.1453802 C16.698232,5.1453802 16.594844,5.1531831 16.570948,5.1829315 C16.547052,5.2126799 16.668484,5.226335 16.668484,5.226335 C16.668484,5.226335 16.482678,5.22731 16.458294,5.2160935 C16.43391,5.204877 16.418306,5.1668383 16.376853,5.1785423 C16.335399,5.1902468 16.292971,5.22731 16.292971,5.22731 C16.292971,5.22731 16.340277,5.1478189 16.370025,5.1473314 C16.399774,5.1468433 16.417329,5.1453802 16.444151,5.1575722 C16.470974,5.1697644 16.495845,5.1834195 16.495845,5.1834195 L16.495845,5.1834195 Z"></path>
            <path id="path30014" fill="#000000" d="M15.801065,5.333916 C15.801065,5.333916 15.815127,5.2463765 15.863665,5.2209056 C15.902365,5.2005973 15.974814,5.2287748 15.974814,5.2287748 C15.974814,5.2287748 15.89534,5.2362838 15.873513,5.2547814 C15.853794,5.2714919 15.854135,5.3100362 15.854135,5.3100362 C15.854135,5.3100362 15.865318,5.2771656 15.925768,5.2687692 C15.986217,5.2603731 15.992928,5.2591106 15.992928,5.2591106 C15.992928,5.2591106 15.892765,5.2858958 15.874781,5.3195498 C15.856798,5.3532038 15.978661,5.3441698 15.978661,5.3441698 C15.978661,5.3441698 15.79624,5.3794846 15.770203,5.3729701 C15.744165,5.3664557 15.721795,5.331958 15.683221,5.3511257 C15.644648,5.3702928 15.609804,5.4145623 15.609804,5.4145623 C15.609804,5.4145623 15.641596,5.3276947 15.67074,5.3217148 C15.699886,5.3157351 15.716869,5.3110511 15.745483,5.3180732 C15.774098,5.3250949 15.801065,5.333916 15.801065,5.333916 L15.801065,5.333916 Z"></path>
            <path id="path30016" fill="#000000" d="M17.081819,5.1525732 C17.081819,5.1525732 17.11661,5.0710219 17.169862,5.058029 C17.212321,5.0476689 17.275819,5.0925102 17.275819,5.0925102 C17.275819,5.0925102 17.196885,5.0806023 17.171236,5.0932803 C17.148065,5.1047332 17.139086,5.1422181 17.139086,5.1422181 C17.139086,5.1422181 17.157877,5.1130219 17.218566,5.1194746 C17.279253,5.1259273 17.286071,5.1263232 17.286071,5.1263232 C17.286071,5.1263232 17.182402,5.1281233 17.156824,5.1564373 C17.131245,5.1847512 17.251682,5.2054184 17.251682,5.2054184 C17.251682,5.2054184 17.066132,5.1956273 17.042439,5.1830169 C17.018744,5.1704063 17.005369,5.1315274 16.963309,5.1408107 C16.921247,5.1500935 16.876742,5.1846366 16.876742,5.1846366 C16.876742,5.1846366 16.928574,5.1080194 16.9583,5.1092561 C16.988027,5.1104928 17.005638,5.1100491 17.031709,5.1237745 C17.057781,5.1374998 17.081819,5.1525732 17.081819,5.1525732 L17.081819,5.1525732 Z"></path>
            <path id="path30018" fill="#000000" d="M17.668498,5.2189393 C17.668498,5.2189393 17.712567,5.1420047 17.766972,5.1353145 C17.81035,5.1299795 17.868182,5.1819245 17.868182,5.1819245 C17.868182,5.1819245 17.791176,5.1608865 17.764223,5.1704855 C17.739875,5.1791566 17.726583,5.2153375 17.726583,5.2153375 C17.726583,5.2153375 17.748654,5.1885333 17.808172,5.2020238 C17.867694,5.2155139 17.874416,5.2167023 17.874416,5.2167023 C17.874416,5.2167023 17.771249,5.2063934 17.742541,5.2315296 C17.713832,5.2566653 17.831034,5.2912442 17.831034,5.2912442 C17.831034,5.2912442 17.647894,5.2598693 17.625834,5.2445799 C17.603774,5.2292908 17.595026,5.1891168 17.552169,5.1934285 C17.509312,5.1977403 17.461081,5.2268545 17.461081,5.2268545 C17.461081,5.2268545 17.5215,5.1568085 17.550879,5.1615049 C17.580257,5.1662024 17.5978,5.1678166 17.622093,5.1844906 C17.646383,5.201164 17.668498,5.2189393 17.668498,5.2189393 L17.668498,5.2189393 Z"></path>
            <path id="path30020" fill="#000000" d="M18.251071,5.3229432 C18.251071,5.3229432 18.29212,5.264349 18.336328,5.2629584 C18.371575,5.2618492 18.414242,5.3078273 18.414242,5.3078273 C18.414242,5.3078273 18.353905,5.2852808 18.331541,5.2910196 C18.311341,5.2962035 18.29801,5.324304 18.29801,5.324304 C18.29801,5.324304 18.317708,5.3043816 18.364549,5.3195824 C18.411388,5.3347831 18.416704,5.3362304 18.416704,5.3362304 C18.416704,5.3362304 18.334556,5.3203888 18.309644,5.3384844 C18.284735,5.3565798 18.376383,5.3929528 18.376383,5.3929528 C18.376383,5.3929528 18.231515,5.3543243 18.214909,5.340422 C18.1983,5.3265203 18.194214,5.2935965 18.15946,5.2939216 C18.124707,5.2942467 18.083815,5.3141087 18.083815,5.3141087 C18.083815,5.3141087 18.137497,5.2622479 18.160761,5.2681744 C18.184026,5.2741008 18.198004,5.2766832 18.216303,5.2918615 C18.2346,5.3070398 18.251071,5.3229432 18.251071,5.3229432 L18.251071,5.3229432 Z"></path>
            <path id="path30022" stroke="#000000" stroke-width="0.02889373" fill="#0F6545" d="M16.378702,4.7859723 C16.3927,4.855482 16.310935,4.9305064 16.196116,4.9535083 C16.081298,4.9765097 15.976943,4.9387704 15.963085,4.8692332 C15.949088,4.799724 16.030853,4.7246997 16.145671,4.7016977 C16.26049,4.6786963 16.364845,4.7164356 16.378702,4.7859723 L16.378702,4.7859723 Z"></path>
            <path id="path30993" fill="#CECFC1" d="M16.118636,4.7746159 C16.122012,4.7914629 16.104261,4.8092236 16.078991,4.8142862 C16.05372,4.8193489 16.0305,4.8097954 16.027124,4.7929484 C16.023749,4.7761015 16.041499,4.7583408 16.066769,4.7532781 C16.09204,4.7482161 16.115261,4.757769 16.118636,4.7746159 L16.118636,4.7746159 Z"></path>
            <path id="path32945" stroke="#000000" stroke-width="0.02889373" fill="#0F6545" d="M18.00136,4.8700734 C17.980187,4.9377431 17.872412,4.9641744 17.760689,4.9290973 C17.648966,4.89402 17.575641,4.8107283 17.596948,4.7431006 C17.61812,4.6754309 17.725895,4.6489996 17.837618,4.6840768 C17.949341,4.719154 18.022666,4.8024457 18.00136,4.8700734 L18.00136,4.8700734 Z"></path>
            <path id="path32947" fill="#CECFC1" d="M17.778834,4.7349934 C17.773688,4.751386 17.749583,4.7584166 17.724994,4.7506962 C17.700404,4.742976 17.684643,4.7234287 17.68979,4.7070361 C17.694936,4.6906436 17.719042,4.6836128 17.743631,4.6913332 C17.76822,4.6990535 17.783982,4.7186008 17.778834,4.7349934 L17.778834,4.7349934 Z"></path>
            <rect id="rect32949" stroke="#000000" stroke-width="0.0411057" fill="#1F2D86" x="16.776137" y="4.6292176" width="0.42059794" height="0.21203698"></rect>
            <path id="path32951" fill="#707C8B" d="M16.953413,4.6744076 C16.953413,4.6840067 16.935517,4.6917876 16.91344,4.6917876 C16.891361,4.6917876 16.873465,4.6840067 16.873465,4.6744076 C16.873465,4.6648087 16.891361,4.6570276 16.91344,4.6570276 C16.935517,4.6570276 16.953413,4.6648087 16.953413,4.6744076 L16.953413,4.6744076 Z"></path>
            <path id="path33926" stroke="#000000" stroke-width="0.02163458" fill="#9F1209" d="M15.58734,4.8412562 L15.656861,5.0463412 L15.528248,5.1158616 C15.528248,5.1158616 15.469155,5.157574 15.410063,5.12629 C15.350971,5.0950056 15.316113,5.001309 15.347494,4.9629169 C15.409755,4.8867473 15.58734,4.8377802 15.58734,4.8412562 L15.58734,4.8412562 Z"></path>
            <path id="path34899" fill="#8F322F" d="M15.479583,4.9872489 C15.479607,5.0218217 15.453143,5.0498622 15.420492,5.0498622 C15.387839,5.0498622 15.361375,5.0218217 15.361398,4.9872489 C15.361375,4.952676 15.387839,4.9246361 15.420492,4.9246361 C15.453143,4.9246361 15.479607,4.952676 15.479583,4.9872489 L15.479583,4.9872489 Z"></path>
            <path id="path33928" fill="#E2A494" d="M15.423674,4.9627529 C15.425489,4.9737942 15.42291,4.9846996 15.416907,4.9913539 C15.410904,4.9980082 15.402394,4.9993977 15.394585,4.9949984 C15.386778,4.9905984 15.380865,4.9810798 15.379076,4.9700341 C15.377258,4.9589933 15.379837,4.9480874 15.385841,4.9414331 C15.391843,4.9347788 15.400354,4.9333893 15.408161,4.9377891 C15.415968,4.9421884 15.421883,4.9517077 15.423674,4.9627529 L15.423674,4.9627529 Z"></path>
            <path id="path34906" stroke="#000000" stroke-width="0.02163458" fill="#9F1209" d="M18.405371,4.8679515 L18.336318,5.0506064 L18.50004,5.1363653 C18.50004,5.1363653 18.572432,5.1686641 18.618096,5.1285692 C18.657136,5.0942901 18.665988,5.0149664 18.634802,4.9748714 C18.605273,4.9369051 18.403143,4.8668378 18.405371,4.8679515 L18.405371,4.8679515 Z"></path>
            <path id="path34910" fill="#AA675D" d="M18.60139,5.0144098 C18.60139,5.0368613 18.577954,5.0550613 18.549044,5.0550613 C18.520134,5.0550613 18.496698,5.0368613 18.496698,5.0144098 C18.496698,4.9919582 18.520134,4.9737577 18.549044,4.9737577 C18.577954,4.9737577 18.60139,4.9919582 18.60139,5.0144098 L18.60139,5.0144098 L18.60139,5.0144098 Z"></path>
            <path id="path34908" fill="#E2A494" d="M18.551271,5.008284 C18.551283,5.0190371 18.546616,5.0289804 18.539029,5.0343615 C18.531443,5.0397425 18.522094,5.0397425 18.514507,5.0343615 C18.506922,5.0289804 18.502254,5.0190371 18.502266,5.008284 C18.502254,4.9975302 18.506922,4.9875875 18.514507,4.9822065 C18.522094,4.9768254 18.531443,4.9768254 18.539029,4.9822065 C18.546616,4.9875875 18.551283,4.9975302 18.551271,5.008284 L18.551271,5.008284 Z"></path>
            <g id="g34927" transform="translate(17.287529, 4.612587)" fill="#F5D8BC">
                <path id="path34917" d="M0.107942885,0.056504654 C0.10796883,0.0841113517 0.0855755995,0.106504654 0.0579429078,0.106504654 C0.0303102162,0.106504654 0.0079169852,0.0841113517 0.00794293036,0.056504654 C0.0079169852,0.0288979564 0.0303102162,0.00650465403 0.0579429078,0.00650465403 C0.0855755995,0.00650465403 0.10796883,0.0288979564 0.107942885,0.056504654 L0.107942885,0.056504654 Z"></path>
                <path id="path34919" d="M0.286912628,0.0668243441 C0.286938573,0.0944310417 0.264545342,0.116824344 0.23691265,0.116824344 C0.209279959,0.116824344 0.186886727,0.0944310417 0.186912673,0.0668243441 C0.186886727,0.0392176465 0.209279959,0.0168243441 0.23691265,0.0168243441 C0.264545342,0.0168243441 0.286938573,0.0392176465 0.286912628,0.0668243441 L0.286912628,0.0668243441 Z"></path>
                <path id="path34921" d="M0.180997019,0.129085788 C0.181022965,0.156692485 0.158629734,0.179085788 0.130997042,0.179085788 C0.10336435,0.179085788 0.0809711194,0.156692485 0.0809970645,0.129085788 C0.0809711194,0.10147909 0.10336435,0.0790857876 0.130997042,0.0790857876 C0.158629734,0.0790857876 0.181022965,0.10147909 0.180997019,0.129085788 L0.180997019,0.129085788 Z"></path>
                <path id="path34923" d="M0.282567384,0.253126627 C0.282593329,0.280733324 0.260200098,0.303126627 0.232567407,0.303126627 C0.204934715,0.303126627 0.182541484,0.280733324 0.182567429,0.253126627 C0.182541484,0.225519929 0.204934715,0.203126627 0.232567407,0.203126627 C0.260200098,0.203126627 0.282593329,0.225519929 0.282567384,0.253126627 L0.282567384,0.253126627 Z"></path>
                <path id="path34925" d="M0.109843986,0.230857258 C0.109869931,0.258463956 0.0874767001,0.280857258 0.0598440085,0.280857258 C0.0322113168,0.280857258 0.00981808582,0.258463956 0.00984403098,0.230857258 C0.00981808582,0.20325056 0.0322113168,0.180857258 0.0598440085,0.180857258 C0.0874767001,0.180857258 0.109869931,0.20325056 0.109843986,0.230857258 L0.109843986,0.230857258 Z"></path>
            </g>
            <g id="g34936" transform="translate(16.575893, 4.766816) rotate(-13.038020) translate(-16.575893, -4.766816) translate(16.446086, 4.626191)" fill="#F5D8BC">
                <path id="path34938" d="M0.107942884,0.0565046531 C0.107968829,0.0841113507 0.0855755983,0.106504653 0.0579429067,0.106504653 C0.0303102151,0.106504653 0.00791698408,0.0841113507 0.00794292924,0.0565046531 C0.00791698408,0.0288979555 0.0303102151,0.00650465311 0.0579429067,0.00650465311 C0.0855755983,0.00650465311 0.107968829,0.0288979555 0.107942884,0.0565046531 L0.107942884,0.0565046531 Z"></path>
                <path id="path34940" d="M0.286912601,0.0668243417 C0.286938546,0.0944310394 0.264545315,0.116824342 0.236912624,0.116824342 C0.209279932,0.116824342 0.186886701,0.0944310394 0.186912646,0.0668243417 C0.186886701,0.0392176441 0.209279932,0.0168243417 0.236912624,0.0168243417 C0.264545315,0.0168243417 0.286938546,0.0392176441 0.286912601,0.0668243417 L0.286912601,0.0668243417 Z"></path>
                <path id="path34942" d="M0.180997008,0.129085776 C0.181022953,0.156692474 0.158629722,0.179085776 0.130997031,0.179085776 C0.103364339,0.179085776 0.0809711079,0.156692474 0.0809970531,0.129085776 C0.0809711079,0.101479079 0.103364339,0.0790857764 0.130997031,0.0790857764 C0.158629722,0.0790857764 0.181022953,0.101479079 0.180997008,0.129085776 L0.180997008,0.129085776 Z"></path>
                <path id="path34944" d="M0.282567358,0.253126598 C0.282593304,0.280733296 0.260200073,0.303126598 0.232567381,0.303126598 C0.204934689,0.303126598 0.182541458,0.280733296 0.182567403,0.253126598 C0.182541458,0.2255199 0.204934689,0.203126598 0.232567381,0.203126598 C0.260200073,0.203126598 0.282593304,0.2255199 0.282567358,0.253126598 L0.282567358,0.253126598 Z"></path>
                <path id="path34946" d="M0.109843985,0.230857233 C0.10986993,0.25846393 0.0874766987,0.280857233 0.0598440071,0.280857233 C0.0322113154,0.280857233 0.00981808444,0.25846393 0.0098440296,0.230857233 C0.00981808444,0.203250535 0.0322113154,0.180857233 0.0598440071,0.180857233 C0.0874766987,0.180857233 0.10986993,0.203250535 0.109843985,0.230857233 L0.109843985,0.230857233 Z"></path>
            </g>
            <g id="g34948" transform="translate(15.833248, 4.916673) rotate(-21.219753) translate(-15.833248, -4.916673) translate(15.703440, 4.776048)" fill="#F5D8BC">
                <path id="path34950" d="M0.107942885,0.0565046536 C0.10796883,0.0841113513 0.085575599,0.106504654 0.0579429074,0.106504654 C0.0303102157,0.106504654 0.00791698473,0.0841113513 0.00794292989,0.0565046536 C0.00791698473,0.028897956 0.0303102157,0.00650465364 0.0579429074,0.00650465364 C0.085575599,0.00650465364 0.10796883,0.028897956 0.107942885,0.0565046536 L0.107942885,0.0565046536 Z"></path>
                <path id="path34952" d="M0.286912617,0.0668243431 C0.286938562,0.0944310407 0.264545331,0.116824343 0.236912639,0.116824343 C0.209279947,0.116824343 0.186886716,0.0944310407 0.186912662,0.0668243431 C0.186886716,0.0392176455 0.209279947,0.0168243431 0.236912639,0.0168243431 C0.264545331,0.0168243431 0.286938562,0.0392176455 0.286912617,0.0668243431 L0.286912617,0.0668243431 Z"></path>
                <path id="path34954" d="M0.180997015,0.129085783 C0.18102296,0.156692481 0.158629729,0.179085783 0.130997037,0.179085783 C0.103364346,0.179085783 0.0809711146,0.156692481 0.0809970597,0.129085783 C0.0809711146,0.101479085 0.103364346,0.0790857829 0.130997037,0.0790857829 C0.158629729,0.0790857829 0.18102296,0.101479085 0.180997015,0.129085783 L0.180997015,0.129085783 Z"></path>
                <path id="path34956" d="M0.282567373,0.253126615 C0.282593318,0.280733312 0.260200087,0.303126615 0.232567396,0.303126615 C0.204934704,0.303126615 0.182541473,0.280733312 0.182567418,0.253126615 C0.182541473,0.225519917 0.204934704,0.203126615 0.232567396,0.203126615 C0.260200087,0.203126615 0.282593318,0.225519917 0.282567373,0.253126615 L0.282567373,0.253126615 Z"></path>
                <path id="path34958" d="M0.109843985,0.230857247 C0.109869931,0.258463945 0.0874766995,0.280857247 0.0598440079,0.280857247 C0.0322113163,0.280857247 0.00981808524,0.258463945 0.0098440304,0.230857247 C0.00981808524,0.20325055 0.0322113163,0.180857247 0.0598440079,0.180857247 C0.0874766995,0.180857247 0.109869931,0.20325055 0.109843985,0.230857247 L0.109843985,0.230857247 Z"></path>
            </g>
            <g id="g34960" transform="translate(18.170183, 4.885452) rotate(13.763981) translate(-18.170183, -4.885452) translate(18.030328, 4.733943)" fill="#F5D8BC">
                <path id="path34962" d="M0.108557684,0.0570081286 C0.108583629,0.0846148262 0.086190398,0.107008129 0.0585577064,0.107008129 C0.0309250148,0.107008129 0.00853178377,0.0846148262 0.00855772893,0.0570081286 C0.00853178377,0.0294014309 0.0309250148,0.00700812858 0.0585577064,0.00700812858 C0.086190398,0.00700812858 0.108583629,0.0294014309 0.108557684,0.0570081286 L0.108557684,0.0570081286 Z"></path>
                <path id="path34964" d="M0.301380079,0.0681265854 C0.301406024,0.0957332831 0.279012793,0.118126585 0.251380101,0.118126585 C0.22374741,0.118126585 0.201354179,0.0957332831 0.201380124,0.0681265854 C0.201354179,0.0405198878 0.22374741,0.0181265854 0.251380101,0.0181265854 C0.279012793,0.0181265854 0.301406024,0.0405198878 0.301380079,0.0681265854 L0.301380079,0.0681265854 Z"></path>
                <path id="path34966" d="M0.187266369,0.135207202 C0.187292314,0.162813899 0.164899083,0.185207202 0.137266392,0.185207202 C0.1096337,0.185207202 0.0872404689,0.162813899 0.0872664141,0.135207202 C0.0872404689,0.107600504 0.1096337,0.0852072019 0.137266392,0.0852072019 C0.164899083,0.0852072019 0.187292314,0.107600504 0.187266369,0.135207202 L0.187266369,0.135207202 Z"></path>
                <path id="path34968" d="M0.296698504,0.268849075 C0.296724449,0.296455773 0.274331218,0.318849075 0.246698526,0.318849075 C0.219065835,0.318849075 0.196672604,0.296455773 0.196698549,0.268849075 C0.196672604,0.241242378 0.219065835,0.218849075 0.246698526,0.218849075 C0.274331218,0.218849075 0.296724449,0.241242378 0.296698504,0.268849075 L0.296698504,0.268849075 Z"></path>
                <path id="path34970" d="M0.110605934,0.244856008 C0.110631879,0.272462706 0.088238648,0.294856008 0.0606059564,0.294856008 C0.0329732648,0.294856008 0.0105800338,0.272462706 0.0106059789,0.244856008 C0.0105800338,0.217249311 0.0329732648,0.194856008 0.0606059564,0.194856008 C0.088238648,0.194856008 0.110631879,0.217249311 0.110605934,0.244856008 L0.110605934,0.244856008 Z"></path>
            </g>
            <path id="path40792" stroke="#000000" stroke-width="0.04975955" d="M18.492215,3.0939156 C18.492215,3.0939156 18.407125,3.1736881 18.30608,3.1736881 C18.205035,3.1736881 18.146535,3.1311427 18.114626,3.1098706 C18.082717,3.088598 18.125263,3.0247799 18.125263,3.0247799"></path>
            <path id="path42739" stroke="#000000" stroke-width="0.04543261" d="M16.705316,3.2534606 C16.705316,3.2534606 16.551089,3.2268697 16.487271,3.2055971 C16.423454,3.1843244 16.439408,3.1417791 16.364955,3.1470973 C16.290499,3.1524154 16.216045,3.2055971 16.231999,3.2800514 C16.247955,3.3545052 16.301137,3.3651415 16.354316,3.3491871 C16.4075,3.3332326 16.391546,3.2428243 16.322408,3.2481424 C16.253273,3.2534606 16.311772,3.3119599 16.311772,3.3119599"></path>
            <path id="path43710" stroke="#000000" stroke-width="0.04326916" d="M15.641685,3.136461 C15.641685,3.136461 15.68423,3.2002789 15.795912,3.1896426 C15.907593,3.1790063 15.950138,3.1205065 15.955456,3.0939156 C15.960775,3.0673253 15.955456,3.0194619 15.934183,2.9981891 C15.91291,2.9769165 15.838457,2.9662801 15.838457,2.9662801"></path>
        </g>
    </g>
</svg>